<svg width="156" height="72" viewBox="0 0 156 72" fill="none" xmlns="http://www.w3.org/2000/svg">
<g filter="url(#filter0_bddii_6_66)">
<path d="M139.323 31C139.323 18.2975 129.025 8 116.323 8H31C18.2975 8 8 18.2975 8 31C8 43.7025 18.2975 54 31 54H116.323C129.025 54 139.323 43.7025 139.323 31Z" fill="white" fill-opacity="0.03" shape-rendering="crispEdges"/>
</g>
<path d="M50.186 36L53.21 27.06H55.682L58.706 36H56.678L56.078 34.176H52.802L52.202 36H50.186ZM53.318 32.556H55.562L54.194 28.332H54.698L53.318 32.556ZM59.6351 36V27.06H62.5511C63.5191 27.06 64.3591 27.252 65.0711 27.636C65.7831 28.02 66.3351 28.548 66.7271 29.22C67.1191 29.892 67.3151 30.66 67.3151 31.524C67.3151 32.388 67.1191 33.16 66.7271 33.84C66.3351 34.512 65.7831 35.04 65.0711 35.424C64.3591 35.808 63.5191 36 62.5511 36H59.6351ZM61.4951 34.38H62.5991C63.1831 34.38 63.6871 34.264 64.1111 34.032C64.5351 33.792 64.8631 33.46 65.0951 33.036C65.3351 32.604 65.4551 32.1 65.4551 31.524C65.4551 30.94 65.3351 30.436 65.0951 30.012C64.8631 29.588 64.5351 29.26 64.1111 29.028C63.6871 28.796 63.1831 28.68 62.5991 28.68H61.4951V34.38ZM68.5062 36V27.06H71.4222C72.3902 27.06 73.2302 27.252 73.9422 27.636C74.6542 28.02 75.2062 28.548 75.5982 29.22C75.9902 29.892 76.1862 30.66 76.1862 31.524C76.1862 32.388 75.9902 33.16 75.5982 33.84C75.2062 34.512 74.6542 35.04 73.9422 35.424C73.2302 35.808 72.3902 36 71.4222 36H68.5062ZM70.3662 34.38H71.4702C72.0542 34.38 72.5582 34.264 72.9822 34.032C73.4062 33.792 73.7342 33.46 73.9662 33.036C74.2062 32.604 74.3262 32.1 74.3262 31.524C74.3262 30.94 74.2062 30.436 73.9662 30.012C73.7342 29.588 73.4062 29.26 72.9822 29.028C72.5582 28.796 72.0542 28.68 71.4702 28.68H70.3662V34.38ZM79.5335 36V27.06H81.3935V36H79.5335ZM82.9788 36V27.06H84.7788L88.1268 31.5H87.2868L90.5388 27.06H92.3388V36H90.4788V29.112L91.2228 29.28L87.7788 33.72H87.5388L84.2148 29.28L84.8388 29.112V36H82.9788ZM93.2641 36L96.2881 27.06H98.7601L101.784 36H99.7561L99.1561 34.176H95.8801L95.2801 36H93.2641ZM96.3961 32.556H98.6401L97.2721 28.332H97.7761L96.3961 32.556ZM106.646 36.144C106.006 36.144 105.41 36.028 104.858 35.796C104.306 35.564 103.822 35.24 103.406 34.824C102.99 34.408 102.666 33.92 102.434 33.36C102.202 32.8 102.086 32.188 102.086 31.524C102.086 30.86 102.198 30.248 102.422 29.688C102.646 29.12 102.962 28.632 103.37 28.224C103.778 27.808 104.254 27.488 104.798 27.264C105.35 27.032 105.95 26.916 106.598 26.916C107.246 26.916 107.826 27.024 108.338 27.24C108.858 27.456 109.298 27.744 109.658 28.104C110.018 28.464 110.274 28.864 110.426 29.304L108.782 30.096C108.63 29.664 108.362 29.308 107.978 29.028C107.602 28.74 107.142 28.596 106.598 28.596C106.07 28.596 105.606 28.72 105.206 28.968C104.806 29.216 104.494 29.56 104.27 30C104.054 30.432 103.946 30.94 103.946 31.524C103.946 32.108 104.062 32.62 104.294 33.06C104.526 33.5 104.842 33.844 105.242 34.092C105.65 34.34 106.118 34.464 106.646 34.464C107.054 34.464 107.434 34.388 107.786 34.236C108.146 34.076 108.434 33.848 108.65 33.552C108.874 33.256 108.986 32.9 108.986 32.484V31.74L109.838 32.46H106.598V30.9H110.846V31.848C110.846 32.576 110.726 33.212 110.486 33.756C110.246 34.292 109.922 34.74 109.514 35.1C109.114 35.452 108.662 35.716 108.158 35.892C107.662 36.06 107.158 36.144 106.646 36.144ZM111.994 36V27.06H118.006V28.68H113.854V30.708H117.766V32.328H113.854V34.38H118.006V36H111.994Z" fill="white"/>
<path d="M38.9537 35.0807C38.9537 35.2812 39.0334 35.4735 39.1752 35.6153C39.317 35.7571 39.5093 35.8367 39.7098 35.8367C39.9103 35.8367 40.1026 35.7571 40.2444 35.6153C40.3862 35.4735 40.4658 35.2812 40.4658 35.0807V31.8045H43.742C43.9426 31.8045 44.1349 31.7248 44.2766 31.583C44.4184 31.4412 44.4981 31.2489 44.4981 31.0484C44.4981 30.8479 44.4184 30.6556 44.2766 30.5138C44.1349 30.372 43.9426 30.2924 43.742 30.2924H40.4658V27.0162C40.4658 26.8157 40.3862 26.6233 40.2444 26.4816C40.1026 26.3398 39.9103 26.2601 39.7098 26.2601C39.5093 26.2601 39.317 26.3398 39.1752 26.4816C39.0334 26.6233 38.9537 26.8157 38.9537 27.0162V30.2924H35.6775C35.477 30.2924 35.2847 30.372 35.1429 30.5138C35.0011 30.6556 34.9215 30.8479 34.9215 31.0484C34.9215 31.2489 35.0011 31.4412 35.1429 31.583C35.2847 31.7248 35.477 31.8045 35.6775 31.8045H38.9537V35.0807Z" fill="white"/>
<defs>
<filter id="filter0_bddii_6_66" x="-96.5599" y="-96.5599" width="340.442" height="255.12" filterUnits="userSpaceOnUse" color-interpolation-filters="sRGB">
<feFlood flood-opacity="0" result="BackgroundImageFix"/>
<feGaussianBlur in="BackgroundImageFix" stdDeviation="52.28"/>
<feComposite in2="SourceAlpha" operator="in" result="effect1_backgroundBlur_6_66"/>
<feColorMatrix in="SourceAlpha" type="matrix" values="0 0 0 0 0 0 0 0 0 0 0 0 0 0 0 0 0 0 127 0" result="hardAlpha"/>
<feOffset dx="9" dy="10"/>
<feGaussianBlur stdDeviation="3.55"/>
<feComposite in2="hardAlpha" operator="out"/>
<feColorMatrix type="matrix" values="0 0 0 0 0 0 0 0 0 0 0 0 0 0 0 0 0 0 0.4 0"/>
<feBlend mode="normal" in2="effect1_backgroundBlur_6_66" result="effect2_dropShadow_6_66"/>
<feColorMatrix in="SourceAlpha" type="matrix" values="0 0 0 0 0 0 0 0 0 0 0 0 0 0 0 0 0 0 127 0" result="hardAlpha"/>
<feOffset dx="-0.5" dy="-0.5"/>
<feGaussianBlur stdDeviation="3.45"/>
<feComposite in2="hardAlpha" operator="out"/>
<feColorMatrix type="matrix" values="0 0 0 0 1 0 0 0 0 1 0 0 0 0 1 0 0 0 0.25 0"/>
<feBlend mode="normal" in2="effect2_dropShadow_6_66" result="effect3_dropShadow_6_66"/>
<feBlend mode="normal" in="SourceGraphic" in2="effect3_dropShadow_6_66" result="shape"/>
<feColorMatrix in="SourceAlpha" type="matrix" values="0 0 0 0 0 0 0 0 0 0 0 0 0 0 0 0 0 0 127 0" result="hardAlpha"/>
<feOffset dy="3.26043"/>
<feGaussianBlur stdDeviation="1.63021"/>
<feComposite in2="hardAlpha" operator="arithmetic" k2="-1" k3="1"/>
<feColorMatrix type="matrix" values="0 0 0 0 1 0 0 0 0 1 0 0 0 0 1 0 0 0 0.15 0"/>
<feBlend mode="normal" in2="shape" result="effect4_innerShadow_6_66"/>
<feColorMatrix in="SourceAlpha" type="matrix" values="0 0 0 0 0 0 0 0 0 0 0 0 0 0 0 0 0 0 127 0" result="hardAlpha"/>
<feOffset/>
<feGaussianBlur stdDeviation="24.4532"/>
<feComposite in2="hardAlpha" operator="arithmetic" k2="-1" k3="1"/>
<feColorMatrix type="matrix" values="0 0 0 0 1 0 0 0 0 1 0 0 0 0 1 0 0 0 0.05 0"/>
<feBlend mode="normal" in2="effect4_innerShadow_6_66" result="effect5_innerShadow_6_66"/>
</filter>
</defs>
</svg>
