<svg width="32" height="32" viewBox="0 0 32 32" fill="none" xmlns="http://www.w3.org/2000/svg">
<g filter="url(#filter0_d_1_108)">
<path d="M17.3846 18C17.3846 18.2738 17.3034 18.5415 17.1513 18.7692C16.9991 18.9969 16.7829 19.1744 16.5299 19.2792C16.2769 19.384 15.9985 19.4114 15.7299 19.358C15.4613 19.3046 15.2146 19.1727 15.0209 18.9791C14.8273 18.7854 14.6954 18.5387 14.642 18.2701C14.5886 18.0015 14.616 17.7231 14.7208 17.4701C14.8256 17.2171 15.0031 17.0009 15.2308 16.8487C15.4585 16.6966 15.7262 16.6154 16 16.6154C16.3672 16.6154 16.7194 16.7613 16.9791 17.0209C17.2387 17.2806 17.3846 17.6328 17.3846 18ZM16 5.53846C13.4546 5.53846 11.3846 7.40192 11.3846 9.69231V10.1538C11.3846 10.3987 11.4819 10.6334 11.655 10.8066C11.8281 10.9797 12.0629 11.0769 12.3077 11.0769C12.5525 11.0769 12.7873 10.9797 12.9604 10.8066C13.1335 10.6334 13.2308 10.3987 13.2308 10.1538V9.69231C13.2308 8.42308 14.4735 7.38461 16 7.38461C17.5265 7.38461 18.7692 8.42308 18.7692 9.69231C18.7692 10.9615 17.5265 12 16 12C15.7552 12 15.5204 12.0972 15.3473 12.2704C15.1742 12.4435 15.0769 12.6783 15.0769 12.9231V13.8462C15.0769 14.091 15.1742 14.3258 15.3473 14.4989C15.5204 14.672 15.7552 14.7692 16 14.7692C16.2448 14.7692 16.4796 14.672 16.6527 14.4989C16.8258 14.3258 16.9231 14.091 16.9231 13.8462V13.7631C19.0277 13.3765 20.6154 11.6977 20.6154 9.69231C20.6154 7.40192 18.5454 5.53846 16 5.53846ZM28 12C28 14.3734 27.2962 16.6934 25.9776 18.6668C24.6591 20.6402 22.7849 22.1783 20.5922 23.0865C18.3995 23.9948 15.9867 24.2324 13.6589 23.7694C11.3311 23.3064 9.19295 22.1635 7.51472 20.4853C5.83649 18.807 4.6936 16.6689 4.23058 14.3411C3.76756 12.0133 4.0052 9.60051 4.91345 7.4078C5.8217 5.21508 7.35977 3.34094 9.33316 2.02236C11.3066 0.703788 13.6266 0 16 0C19.1816 0.00335979 22.2319 1.26872 24.4816 3.51843C26.7313 5.76814 27.9966 8.81843 28 12ZM26.1538 12C26.1538 9.99176 25.5583 8.02861 24.4426 6.35882C23.3269 4.68903 21.7411 3.38759 19.8857 2.61907C18.0303 1.85055 15.9887 1.64947 14.0191 2.04126C12.0494 2.43304 10.2402 3.4001 8.82015 4.82015C7.40011 6.24019 6.43305 8.04943 6.04126 10.0191C5.64947 11.9887 5.85055 14.0303 6.61907 15.8857C7.38759 17.7411 8.68904 19.3269 10.3588 20.4426C12.0286 21.5583 13.9918 22.1538 16 22.1538C18.692 22.1508 21.2729 21.08 23.1765 19.1765C25.08 17.2729 26.1508 14.692 26.1538 12Z" fill="url(#paint0_linear_1_108)"/>
</g>
<defs>
<filter id="filter0_d_1_108" x="0" y="0" width="32" height="32" filterUnits="userSpaceOnUse" color-interpolation-filters="sRGB">
<feFlood flood-opacity="0" result="BackgroundImageFix"/>
<feColorMatrix in="SourceAlpha" type="matrix" values="0 0 0 0 0 0 0 0 0 0 0 0 0 0 0 0 0 0 127 0" result="hardAlpha"/>
<feOffset dy="4"/>
<feGaussianBlur stdDeviation="2"/>
<feComposite in2="hardAlpha" operator="out"/>
<feColorMatrix type="matrix" values="0 0 0 0 0 0 0 0 0 0 0 0 0 0 0 0 0 0 0.25 0"/>
<feBlend mode="normal" in2="BackgroundImageFix" result="effect1_dropShadow_1_108"/>
<feBlend mode="normal" in="SourceGraphic" in2="effect1_dropShadow_1_108" result="shape"/>
</filter>
<linearGradient id="paint0_linear_1_108" x1="23.5" y1="27.5" x2="7.5" y2="2" gradientUnits="userSpaceOnUse">
<stop stop-color="#4A4E54"/>
<stop offset="1" stop-color="#A3ADBA"/>
</linearGradient>
</defs>
</svg>
